<?xml version="1.0" standalone="no"?><!DOCTYPE svg PUBLIC "-//W3C//DTD SVG 1.1//EN" "http://www.w3.org/Graphics/SVG/1.1/DTD/svg11.dtd"><svg t="1724663158465" class="icon" viewBox="0 0 1024 1024" version="1.1" xmlns="http://www.w3.org/2000/svg" p-id="4347" width="32" height="32" xmlns:xlink="http://www.w3.org/1999/xlink"><path d="M734.29797 1023.999352a250.815031 250.815031 0 1 1 250.815031-250.16693 250.16693 250.16693 0 0 1-250.815031 250.16693z m0-437.468078a186.004946 186.004946 0 1 0 129.620171 54.440472 187.301147 187.301147 0 0 0-129.620171-54.440472zM219.705891 448.485792V388.860513h286.460578v64.810086z m0-171.098626v-60.273379l524.313592-3.240505v64.810086z" fill="#1296db" p-id="4348"></path><path d="M758.277702 754.389396h-47.311363a9.721513 9.721513 0 0 0-9.721513 9.721513v132.860675a9.721513 9.721513 0 0 0 9.721513 9.721513h47.311363a9.721513 9.721513 0 0 0 9.721512-9.721513v-132.860675a9.721513 9.721513 0 0 0-9.721512-9.721513zM734.29797 712.910941a31.756942 31.756942 0 1 1 31.756942-31.756942 31.756942 31.756942 0 0 1-31.756942 31.756942z" fill="#1296db" p-id="4349"></path><path d="M70.642694 995.482914a31.756942 31.756942 0 0 1-31.756942-31.756942V31.756942A31.756942 31.756942 0 0 1 70.642694 0h825.68049a31.756942 31.756942 0 0 1 31.756942 31.756942v453.670599h-69.994893V66.754388H111.473048v856.14123h347.382058v69.346792z" fill="#1296db" p-id="4350"></path></svg>