<?xml version="1.0" standalone="no"?><!DOCTYPE svg PUBLIC "-//W3C//DTD SVG 1.1//EN" "http://www.w3.org/Graphics/SVG/1.1/DTD/svg11.dtd"><svg t="1708588693332" class="icon" viewBox="0 0 1024 1024" version="1.1" xmlns="http://www.w3.org/2000/svg" p-id="7644" xmlns:xlink="http://www.w3.org/1999/xlink" width="20" height="20"><path d="M896 896H96a32 32 0 0 1-32-32V224a32 32 0 0 1 64 0v608h768a32 32 0 1 1 0 64z" p-id="7645" fill="#327cff"></path><path d="M512 752.16a32 32 0 0 1-32-32V350.624a32 32 0 0 1 64 0v369.536a32 32 0 0 1-32 32zM320 752.576a32 32 0 0 1-32-32V512a32 32 0 0 1 64 0v208.576a32 32 0 0 1-32 32zM896 752.672a32 32 0 0 1-32-32V163.488a32 32 0 1 1 64 0v557.184a32 32 0 0 1-32 32zM704 752.736a32 32 0 0 1-32-32V224a32 32 0 1 1 64 0v496.736a32 32 0 0 1-32 32z" p-id="7646" fill="#327cff"></path></svg>