<?xml version="1.0" standalone="no"?><!DOCTYPE svg PUBLIC "-//W3C//DTD SVG 1.1//EN" "http://www.w3.org/Graphics/SVG/1.1/DTD/svg11.dtd"><svg t="1707639994878" class="icon" viewBox="0 0 1024 1024" version="1.1" xmlns="http://www.w3.org/2000/svg" p-id="4224" xmlns:xlink="http://www.w3.org/1999/xlink" width="16" height="16"><path d="M1011.563164 975.028744c13.951985 13.986985 16.559982 33.348964 5.813993 43.246952-10.749988 9.918989-30.784966 6.608993-44.731951-7.377992L12.435256 48.970756C-1.517728 34.983772-4.122725 15.622793 6.630263 5.713804c10.751988-9.908989 30.774966-6.598993 44.728951 7.377992l960.20395 961.936948z" fill="#327cff" p-id="4225"></path><path d="M12.439256 975.038744c-13.951985 13.986985-16.558982 33.338964-5.813993 43.236952 10.749988 9.918989 30.784966 6.618993 44.731951-7.367992L1011.567164 48.970756c13.951985-13.986985 16.554982-33.348964 5.804993-43.246952-10.755988-9.908989-30.774966-6.608993-44.731951 7.377992L12.439256 975.038744z" fill="#327cff" p-id="4226"></path></svg>