<?xml version="1.0" standalone="no"?><!DOCTYPE svg PUBLIC "-//W3C//DTD SVG 1.1//EN" "http://www.w3.org/Graphics/SVG/1.1/DTD/svg11.dtd"><svg t="1707037388811" class="icon" viewBox="0 0 1024 1024" version="1.1" xmlns="http://www.w3.org/2000/svg" p-id="7268" xmlns:xlink="http://www.w3.org/1999/xlink" width="32" height="32"><path d="M533.81 821.984h-36V510.648h36z" fill="#327cff" p-id="7269"></path><path d="M512 529c-45.84 0-83-37.16-83-83s37.16-83 83-83 83 37.16 83 83-37.16 83-83 83z m0-36c25.957 0 47-21.043 47-47s-21.043-47-47-47-47 21.043-47 47 21.043 47 47 47z" fill="#327cff" p-id="7270"></path><path d="M461.241 623.529c51.41 71.74 77.289 139.141 69.44 200.21-1.267 9.86-10.287 16.827-20.147 15.56-9.86-1.268-16.826-10.288-15.559-20.148 6.445-50.15-16.382-109.606-62.996-174.652-35.671-49.778-81.919-98.535-132.995-144.332-7.945-7.123-7.984-19.554-0.084-26.727 33.798-30.69 62.836-102.283 85.208-213.975 1.953-9.748 11.438-16.067 21.185-14.114 9.748 1.952 16.067 11.437 14.114 21.184-21.073 105.205-48.193 178.116-82.685 219.293 47.43 43.754 90.346 90.015 124.52 137.7z" fill="#327cff" p-id="7271"></path><path d="M568.823 623.529c-51.41 71.74-77.289 139.141-69.44 200.21 1.267 9.86 10.288 16.827 20.148 15.56 9.86-1.268 16.826-10.288 15.558-20.148-6.445-50.15 16.382-109.606 62.996-174.652 35.671-49.778 81.92-98.535 132.996-144.332 7.944-7.123 7.983-19.554 0.084-26.727-33.799-30.69-62.836-102.283-85.21-213.975-1.952-9.748-11.436-16.067-21.184-14.114-9.747 1.952-16.066 11.437-14.114 21.184 21.073 105.205 48.193 178.116 82.685 219.293-47.43 43.754-90.346 90.015-124.52 137.7z" fill="#327cff" p-id="7272"></path><path d="M313 245h396v-98H313v98z m-18-134h432c9.941 0 18 8.059 18 18v134c0 9.941-8.059 18-18 18H295c-9.941 0-18-8.059-18-18V129c0-9.941 8.059-18 18-18z" fill="#327cff" p-id="7273"></path><path d="M145 757v120h116V757H145z m-18-36h152c9.941 0 18 8.059 18 18v156c0 9.941-8.059 18-18 18H127c-9.941 0-18-8.059-18-18V739c0-9.941 8.059-18 18-18zM763 757v120h116V757H763z m-18-36h152c9.941 0 18 8.059 18 18v156c0 9.941-8.059 18-18 18H745c-9.941 0-18-8.059-18-18V739c0-9.941 8.059-18 18-18z" fill="#327cff" p-id="7274"></path><path d="M736.701 803.984c9.941 0 18 8.06 18 18 0 9.942-8.059 18-18 18H285.7c-9.941 0-18-8.058-18-18 0-9.94 8.059-18 18-18H736.7z" fill="#327cff" p-id="7275"></path></svg>