<?xml version="1.0" standalone="no"?><!DOCTYPE svg PUBLIC "-//W3C//DTD SVG 1.1//EN" "http://www.w3.org/Graphics/SVG/1.1/DTD/svg11.dtd"><svg t="1709868862691" class="icon" viewBox="0 0 1024 1024" version="1.1" xmlns="http://www.w3.org/2000/svg" p-id="8646" width="24" height="24" xmlns:xlink="http://www.w3.org/1999/xlink"><path d="M889.412267 101.0944c-8.785067-9.6384-21.960533-9.6384-30.7456 0L628.078933 349.269333a24.8832 24.8832 0 0 0 0 33.732267c4.394667 4.821333 10.978133 7.227733 15.3728 7.227733 6.587733 0 10.978133-2.410667 15.3728-7.227733L889.412267 134.826667a24.8832 24.8832 0 0 0 0-33.732267z m-116.394667 265.0368v481.877333c0 7.232-6.587733 14.464-13.175467 14.464H206.429867c-6.587733 2.4064-13.175467-4.821333-13.175467-12.049066V204.6976c0-7.227733 6.587733-14.455467 13.175467-14.455467h423.8464c13.175467 0 21.960533-9.6384 21.960533-24.093866 0-14.455467-8.789333-24.093867-21.960533-24.093867H206.429867C175.684267 142.0544 149.333333 170.9696 149.333333 204.6976v645.725867C149.333333 884.155733 175.684267 913.066667 206.429867 913.066667h553.412266c32.938667 0 57.1008-28.910933 57.1008-62.6432V368.5376c0-14.455467-8.789333-26.500267-21.960533-26.500267-13.179733 0-21.9648 9.634133-21.9648 24.093867zM551.214933 416.725333h-256.938666c-13.179733 0-21.960533 9.634133-21.960534 24.093867 0 14.455467 8.7808 24.093867 21.960534 24.093867h254.7456c13.175467 0 21.960533-9.642667 21.960533-24.093867 0-14.459733-8.789333-24.093867-19.767467-24.093867z m-278.8992 255.394134c0 14.459733 8.7808 24.093867 21.960534 24.093866h377.728c13.1712 0 21.956267-9.634133 21.956266-24.093866 0-14.455467-8.785067-24.093867-21.960533-24.093867H294.272c-10.978133 0-21.956267 9.642667-21.956267 24.093867z" fill="#327cff" p-id="8647"></path></svg>