<?xml version="1.0" standalone="no"?><!DOCTYPE svg PUBLIC "-//W3C//DTD SVG 1.1//EN" "http://www.w3.org/Graphics/SVG/1.1/DTD/svg11.dtd"><svg t="1724922521202" class="icon" viewBox="0 0 1024 1024" version="1.1" xmlns="http://www.w3.org/2000/svg" p-id="11272" xmlns:xlink="http://www.w3.org/1999/xlink" width="24" height="24"><path d="M425.0624 206.464c9.728 0 18.8672 4.4288 24.9088 11.904l2.1248 2.944 45.2864 71.424h242.3552c66.048 0 118.8608 55.5008 121.6512 123.9296l0.128 5.7344v281.6c0 69.12-51.0208 126.464-116.3008 129.536l-5.4784 0.1024H284.2624c-66.048 0-118.8608-55.4752-121.6512-123.904l-0.128-5.7344v-57.9328a32 32 0 0 1 63.8464-3.2512l0.1536 3.2512V704c0 35.3536 24.4224 63.3344 54.0416 65.5104l3.7376 0.128h455.4752c30.0288 0 55.6544-26.5472 57.6512-61.2608l0.128-4.3776v-281.6c0-35.3536-24.4224-63.3344-54.0416-65.5104l-3.7376-0.128H479.8208a32 32 0 0 1-24.9344-11.904l-2.0992-2.9696-45.3376-71.4496-110.5664 0.0256a70.4 70.4 0 0 0-70.272 66.0992l-0.128 4.3008v198.3232a32 32 0 0 1-63.8208 3.2768l-0.1792-3.2768v-198.3232a134.4 134.4 0 0 1 128.8704-134.2976l5.5296-0.1024h128.1792z" fill="#4195f2" p-id="11273"></path><path d="M719.36 441.6a32 32 0 0 1 3.2768 63.8464l-3.2768 0.1536H304.64a32 32 0 0 1-3.2768-63.8464l3.2768-0.1536h414.72z" fill="#4195f2" p-id="11274"></path></svg>