<?xml version="1.0" standalone="no"?>
<!DOCTYPE svg PUBLIC "-//W3C//DTD SVG 1.1//EN" "http://www.w3.org/Graphics/SVG/1.1/DTD/svg11.dtd">
<svg t="1704950700608" class="icon" viewBox="0 0 1024 1024" version="1.1" xmlns="http://www.w3.org/2000/svg"
            p-id="9620" width="32" height="32">
            <path
                d="M920 286.628c0-20.228-16.4-36.628-36.628-36.628H197.092C145.68 250 104 291.68 104 343.092v470.66a96.26 96.26 0 0 0 28.188 68.06 96.26 96.26 0 0 0 68.06 28.188h683.124c20.228 0 36.628-16.4 36.628-36.628V286.628z"
                fill="#D5F0FE" p-id="9621"></path>
            <path
                d="M868 320.708a22.708 22.708 0 0 0-22.708-22.708h-394.584A22.708 22.708 0 0 0 428 320.708v250.584a22.708 22.708 0 0 0 22.708 22.708h394.584a22.708 22.708 0 0 0 22.708-22.708V320.708z"
                fill="#63B6F0" p-id="9622"></path>
            <path
                d="M868 664.708a22.708 22.708 0 0 0-22.708-22.708h-181.92a22.7 22.7 0 0 0-21.08 14.276l-61.836 154.584a22.704 22.704 0 0 0 21.084 31.14h243.752a22.708 22.708 0 0 0 22.708-22.708v-154.584z"
                fill="#93EB3B" p-id="9623"></path>
            <path
                d="M368 320.708a22.708 22.708 0 0 0-22.708-22.708H234.708A22.708 22.708 0 0 0 212 320.708v250.584a22.708 22.708 0 0 0 22.708 22.708h110.584A22.708 22.708 0 0 0 368 571.292V320.708z"
                fill="#00DF8E" p-id="9624"></path>
            <path
                d="M590.504 655.744a10.032 10.032 0 0 0-9.308-13.744H130.708c-6.024 0-11.8 2.392-16.056 6.652A22.692 22.692 0 0 0 108 664.708v109.672c0 17.932 7.124 35.132 19.804 47.816a67.636 67.636 0 0 0 47.816 19.804h333.596a10.024 10.024 0 0 0 9.304-6.3l71.984-179.956z"
                fill="#EC9982" p-id="9625"></path>
            <path
                d="M280 730H192.416A88.424 88.424 0 0 0 104 818V207.684A93.692 93.692 0 0 1 197.684 114h52.824A29.492 29.492 0 0 1 280 143.492V730z"
                fill="#C0E1F7" p-id="9626"></path>
            <path
                d="M654 118c84.996 0 154 69.004 154 154 0 112.996-141.004 226-154 226-12.996 0-154-109.004-154-226 0-84.996 69.004-154 154-154z"
                fill="#FF2865" p-id="9627"></path>
            <path d="M654 276m-66 0a66 66 0 1 0 132 0 66 66 0 1 0-132 0Z" fill="#E70049" p-id="9628"></path>
        </svg>