<?xml version="1.0" standalone="no"?><!DOCTYPE svg PUBLIC "-//W3C//DTD SVG 1.1//EN" "http://www.w3.org/Graphics/SVG/1.1/DTD/svg11.dtd"><svg t="1724522034405" class="icon" viewBox="0 0 1084 1024" version="1.1" xmlns="http://www.w3.org/2000/svg" p-id="5077" width="33.875" height="16" xmlns:xlink="http://www.w3.org/1999/xlink"><path d="M780.15415787 962.95364909a487.80763291 487.80763291 0 0 0 157.42882675-116.1168889 493.75935294 493.75935294 0 0 0 100.5373865-168.86546494 498.95251944 498.95251944 0 0 0 27.65799269-188.00432922 498.31066734 498.31066734 0 0 0-44.11274812-184.8534185 492.76739944 492.76739944 0 0 0-114.94988422-159.06263234A485.99877613 485.99877613 0 0 0 553.58034941 16.51348206 488.15773334 488.15773334 0 0 0 213.22366044 177.3266195a493.87605244 493.87605244 0 0 0-91.60980694 145.46703694L16 297.11957075l43.76264672 149.20144903 43.82099647 149.20145 105.9639549-112.96597819L315.51155203 369.64886316l-99.83718369-24.15698057a398.53183341 398.53183341 0 0 1 67.80292682-103.27984509 393.16361572 393.16361572 0 0 1 558.8781709-25.14893503c160.98818862 148.79299787 172.07472638 402.03284553 24.85718241 564.65483975a393.39701666 393.39701666 0 0 1-558.99487041 25.09058431l-64.24356493 71.01218825a486.40722825 486.40722825 0 0 0 353.31043228 129.6541336 483.78146916 483.78146916 0 0 0 182.86951247-44.52119929z" fill="#fff" p-id="5078"></path></svg>