<?xml version="1.0" standalone="no"?><!DOCTYPE svg PUBLIC "-//W3C//DTD SVG 1.1//EN" "http://www.w3.org/Graphics/SVG/1.1/DTD/svg11.dtd"><svg t="1724897257070" class="icon" viewBox="0 0 1024 1024" version="1.1" xmlns="http://www.w3.org/2000/svg" p-id="3561" xmlns:xlink="http://www.w3.org/1999/xlink" width="24" height="24"><path d="M64 384h900v544H64z" fill="#D8D8D8" p-id="3562"></path><path d="M128 448h64v64H128zM224 448h288v64H224zM224 560h352v96H224zM224 702h288v64H224zM224 818h288v64H224z" fill="#FFFFFF" p-id="3563"></path><path d="M102 564h90v90H102z" fill="#8ACBFA" p-id="3564"></path><path d="M128 702h64v64H128zM128 818h64v64H128z" fill="#FFFFFF" p-id="3565"></path><path d="M128 240h768v112H128z" fill="#FFD580" p-id="3566"></path><path d="M192 96h640v112H192z" fill="#89CBFA" p-id="3567"></path><path d="M859.208 401.754l52.976 28.168c26.334 14 36.33 46.7 22.328 73.032l-33.8 63.572-148.336-78.872 33.8-63.572c14.002-26.332 46.7-36.33 73.032-22.328z" fill="#919191" p-id="3568"></path><path d="M912.184 429.922c26.334 14 36.33 46.7 22.328 73.032l-33.8 63.572-148.336-78.872 33.8-63.572c14.002-26.332 46.7-36.33 73.032-22.328l52.976 28.168z m-9.388 17.66l-52.978-28.168c-16.58-8.816-37.166-2.522-45.98 14.058l-24.414 45.912 113.016 60.092 24.414-45.912c8.714-16.39 2.664-36.694-13.492-45.674l-0.566-0.308z" fill="#FFFFFF" p-id="3569"></path><path d="M761.764 469.996l148.336 78.87-166.286 312.738-113.51 34.558-34.824-113.43z" fill="#919191" p-id="3570"></path><path d="M910.1 548.866l-166.286 312.738-113.51 34.558-34.824-113.43 166.284-312.736 148.336 78.87z m-27.048 8.27l-113.018-60.092-153 287.75 26.532 86.42 86.486-26.33 153-287.748z" fill="#FFFFFF" p-id="3571"></path></svg>