<?xml version="1.0" standalone="no"?><!DOCTYPE svg PUBLIC "-//W3C//DTD SVG 1.1//EN" "http://www.w3.org/Graphics/SVG/1.1/DTD/svg11.dtd"><svg t="1724759158801" class="icon" viewBox="0 0 1025 1024" version="1.1" xmlns="http://www.w3.org/2000/svg" p-id="12238" xmlns:xlink="http://www.w3.org/1999/xlink" width="32.03125" height="32"><path d="M991.296377 156.569883H524.402652a190.956191 190.956191 0 0 0-375.662408 0H34.340521a34.340521 34.340521 0 1 0 0 68.681042h114.376829a190.967638 190.967638 0 0 0 375.685302 0h466.893725a34.340521 34.340521 0 0 0 0-68.681042zM423.006539 277.345496a121.645573 121.645573 0 1 1 30.906469-52.094571 121.450976 121.450976 0 0 1-30.906469 52.094571zM0 833.078149a34.340521 34.340521 0 0 0 34.340521 34.340521h466.882279a190.967638 190.967638 0 0 0 375.685301 0h114.388276a34.340521 34.340521 0 0 0 0-68.681042h-114.399723a190.956191 190.956191 0 0 0-375.662407 0H34.340521a34.340521 34.340521 0 0 0-34.340521 34.340521z m571.689549 34.340521a122.389617 122.389617 0 1 1 30.906469 52.094571 122.355277 122.355277 0 0 1-30.895022-52.094571z" p-id="12239" fill="#cacaca"></path></svg>