<?xml version="1.0" standalone="no"?><!DOCTYPE svg PUBLIC "-//W3C//DTD SVG 1.1//EN" "http://www.w3.org/Graphics/SVG/1.1/DTD/svg11.dtd"><svg t="1723541576045" class="icon" viewBox="0 0 1024 1024" version="1.1" xmlns="http://www.w3.org/2000/svg" p-id="14482" xmlns:xlink="http://www.w3.org/1999/xlink" width="24" height="24"><path d="M619.264 944.448H176.768a97.28 97.28 0 0 1-97.28-97.216V180.096a97.28 97.28 0 0 1 97.28-97.216h667.136c26.816 0 50.24 10.048 70.4 30.208 16.768 16.768 26.816 43.52 26.816 70.4V625.92c0 20.096 16.768 36.864 36.864 36.864a37.184 37.184 0 0 0 36.864-36.864V183.488c0-93.888-77.12-167.68-167.616-171.008H176.768C86.272 9.152 9.088 86.272 9.088 176.768v667.136c0 93.824 77.184 167.616 167.68 170.944h442.496a37.184 37.184 0 0 0 36.864-36.864c0-20.096-16.768-33.536-36.864-33.536z m385.536 10.048l-137.472-137.408c70.4-97.28 46.976-231.36-50.24-301.76-97.28-70.4-231.36-46.912-301.76 50.304-70.4 97.28-46.912 231.296 50.304 301.696 73.728 53.632 174.336 53.632 251.456 0l137.408 137.472c13.44 13.44 36.864 13.44 50.304 0a36.48 36.48 0 0 0 0-50.304z m-311.744-120.64a143.104 143.104 0 0 1-144.192-144.192c0-80.448 63.68-144.128 144.192-144.128 80.448 0 144.128 63.68 144.128 144.128 0 36.864-16.768 73.792-43.584 100.608-26.816 30.144-63.68 43.52-100.544 43.52z m107.264-499.52a37.184 37.184 0 0 0 36.864-36.864 37.184 37.184 0 0 0-36.864-36.928H227.072c-23.488 0-36.928 16.768-36.928 36.928 0 20.096 16.768 36.864 36.928 36.864h573.248zM441.6 548.864A37.184 37.184 0 0 0 478.464 512a37.184 37.184 0 0 0-36.864-36.864H223.68A37.184 37.184 0 0 0 186.88 512c0 20.096 16.768 36.864 36.864 36.864H441.6zM223.68 693.12a37.184 37.184 0 0 0-36.864 36.864c0 20.096 16.768 36.864 36.864 36.864h144.192a37.184 37.184 0 0 0 36.864-36.864 37.184 37.184 0 0 0-36.864-36.864H223.68z" fill="#3F92FE" p-id="14483"></path></svg>