<?xml version="1.0" standalone="no"?><!DOCTYPE svg PUBLIC "-//W3C//DTD SVG 1.1//EN" "http://www.w3.org/Graphics/SVG/1.1/DTD/svg11.dtd"><svg t="1724935501403" class="icon" viewBox="0 0 1024 1024" version="1.1" xmlns="http://www.w3.org/2000/svg" p-id="3473" xmlns:xlink="http://www.w3.org/1999/xlink" width="16" height="16"><path d="M183.46666667 746.66666667h198.4c12.8 0 25.6 12.8 25.6 25.6s-12.8 25.6-25.6 25.6H157.86666667c-12.8 0-25.6-12.8-25.6-25.6V317.86666667h-19.2c-12.8 0-25.6-12.8-25.6-25.6V196.26666667c0-12.8 12.8-25.6 25.6-25.6h96c12.8 0 25.6 12.8 25.6 25.6v96c0 12.8-12.8 25.6-25.6 25.6h-25.6V490.66666667h198.4c12.8 0 25.6 12.8 25.6 25.6s-12.8 25.6-25.6 25.6H183.46666667V746.66666667z m140.8-550.4c0-12.8 12.8-25.6 25.6-25.6h582.4c12.8 0 25.6 12.8 25.6 25.6v96c0 12.8-12.8 25.6-25.6 25.6H349.86666667c-12.8 0-25.6-12.8-25.6-25.6V196.26666667z m179.2 268.8c0-12.8 12.8-25.6 25.6-25.6H938.66666667c12.8 0 25.6 12.8 25.6 25.6v96c0 12.8-12.8 25.6-25.6 25.6H529.06666667c-12.8 0-25.6-12.8-25.6-25.6V465.06666667z m0 256c0-12.8 12.8-25.6 25.6-25.6H938.66666667c12.8 0 25.6 12.8 25.6 25.6v96c0 12.8-12.8 25.6-25.6 25.6H529.06666667c-12.8 0-25.6-12.8-25.6-25.6v-96z" p-id="3474" fill="#327cff"></path></svg>