<?xml version="1.0" standalone="no"?><!DOCTYPE svg PUBLIC "-//W3C//DTD SVG 1.1//EN" "http://www.w3.org/Graphics/SVG/1.1/DTD/svg11.dtd"><svg t="1724934400822" class="icon" viewBox="0 0 1024 1024" version="1.1" xmlns="http://www.w3.org/2000/svg" p-id="2399" width="16" height="16" xmlns:xlink="http://www.w3.org/1999/xlink"><path d="M715.001756 430.579512h-413.596097c-22.078439 0-39.960976-17.882537-39.960976-39.960975s17.882537-39.960976 39.960976-39.960976h413.596097c22.078439 0 39.960976 17.882537 39.960976 39.960976s-17.882537 39.960976-39.960976 39.960975zM715.001756 580.433171h-413.596097c-22.078439 0-39.960976-17.882537-39.960976-39.960976s17.882537-39.960976 39.960976-39.960975h413.596097c22.078439 0 39.960976 17.882537 39.960976 39.960975s-17.882537 39.960976-39.960976 39.960976zM715.001756 730.286829h-413.596097c-22.078439 0-39.960976-17.882537-39.960976-39.960975s17.882537-39.960976 39.960976-39.960976h413.596097c22.078439 0 39.960976 17.882537 39.960976 39.960976s-17.882537 39.960976-39.960976 39.960975zM611.602732 237.767805h-206.798049c-22.078439 0-39.960976-17.882537-39.960976-39.960976s17.882537-39.960976 39.960976-39.960975h206.798049c22.078439 0 39.960976 17.882537 39.960975 39.960975s-17.882537 39.960976-39.960975 39.960976zM700.515902 870.150244h-80.920975c-22.078439 0-39.960976-17.882537-39.960976-39.960976s17.882537-39.960976 39.960976-39.960975h80.920975c22.078439 0 39.960976 17.882537 39.960976 39.960975s-17.882537 39.960976-39.960976 39.960976z" fill="#327cff" p-id="2400"></path><path d="M827.891512 79.921951v863.157073h-639.37561V292.214634L400.808585 79.921951h427.082927m19.980488-79.921951H392.516683c-15.884488 0-31.169561 6.293854-42.358634 17.582829L126.076878 241.564098c-11.288976 11.288976-17.582829 26.474146-17.582829 42.358634V963.059512c0 33.067707 26.873756 59.941463 59.941463 59.941464h679.336586c33.067707 0 59.941463-26.873756 59.941463-59.941464V59.941463c0.099902-33.067707-26.773854-59.941463-59.841561-59.941463z" fill="#327cff" p-id="2401"></path></svg>