<?xml version="1.0" standalone="no"?><!DOCTYPE svg PUBLIC "-//W3C//DTD SVG 1.1//EN" "http://www.w3.org/Graphics/SVG/1.1/DTD/svg11.dtd"><svg t="1710474392443" class="icon" viewBox="0 0 1024 1024" version="1.1" xmlns="http://www.w3.org/2000/svg" p-id="2128" xmlns:xlink="http://www.w3.org/1999/xlink" width="24" height="24"><path d="M0 0m0 0l1024 0q0 0 0 0l0 1024q0 0 0 0l-1024 0q0 0 0 0l0-1024q0 0 0 0Z" fill="#E8EFF8" p-id="2129"></path><path d="M209.454545 232.727273a23.272727 23.272727 0 0 1 23.272728-23.272728h349.090909a23.272727 23.272727 0 0 1 23.272727 23.272728v349.090909a23.272727 23.272727 0 0 1-23.272727 23.272727H232.727273a23.272727 23.272727 0 0 1-23.272728-23.272727V232.727273z" fill="#9BB9EF" p-id="2130"></path><path d="M651.636364 232.727273a23.272727 23.272727 0 0 1 23.272727-23.272728h116.363636a23.272727 23.272727 0 0 1 23.272728 23.272728v116.363636a23.272727 23.272727 0 0 1-23.272728 23.272727h-116.363636a23.272727 23.272727 0 0 1-23.272727-23.272727v-116.363636z" fill="#247ADE" p-id="2131"></path><path d="M651.636364 465.454545a23.272727 23.272727 0 0 1 23.272727-23.272727h116.363636a23.272727 23.272727 0 0 1 23.272728 23.272727v116.363637a23.272727 23.272727 0 0 1-23.272728 23.272727h-116.363636a23.272727 23.272727 0 0 1-23.272727-23.272727v-116.363637z" fill="#69CB91" p-id="2132"></path><path d="M209.454545 674.909091a23.272727 23.272727 0 0 1 23.272728-23.272727h116.363636a23.272727 23.272727 0 0 1 23.272727 23.272727v116.363636a23.272727 23.272727 0 0 1-23.272727 23.272728h-116.363636a23.272727 23.272727 0 0 1-23.272728-23.272728v-116.363636z" fill="#9BB9EF" p-id="2133"></path><path d="M442.181818 674.909091a23.272727 23.272727 0 0 1 23.272727-23.272727h116.363637a23.272727 23.272727 0 0 1 23.272727 23.272727v116.363636a23.272727 23.272727 0 0 1-23.272727 23.272728h-116.363637a23.272727 23.272727 0 0 1-23.272727-23.272728v-116.363636z" fill="#69CB91" p-id="2134"></path><path d="M651.636364 674.909091a23.272727 23.272727 0 0 1 23.272727-23.272727h116.363636a23.272727 23.272727 0 0 1 23.272728 23.272727v116.363636a23.272727 23.272727 0 0 1-23.272728 23.272728h-116.363636a23.272727 23.272727 0 0 1-23.272727-23.272728v-116.363636z" fill="#9BB9EF" p-id="2135"></path></svg>