<?xml version="1.0" standalone="no"?><!DOCTYPE svg PUBLIC "-//W3C//DTD SVG 1.1//EN" "http://www.w3.org/Graphics/SVG/1.1/DTD/svg11.dtd"><svg t="1710380552390" class="icon" viewBox="0 0 1024 1024" version="1.1" xmlns="http://www.w3.org/2000/svg" p-id="8574" xmlns:xlink="http://www.w3.org/1999/xlink" width="32" height="32"><path d="M826.722 424.822l22.555 165.918c-69.053-14.506-134.299-41.359-192.839-78.599 48.526-22.08 93.948-51.194 135.063-86.765 2.06 0.032 4.118 0.148 6.177 0.148a587.623 587.623 0 0 0 29.044-0.702zM376.11 560.424l-76.54 121.251-106.224 1.639 33.816-155.81c47.95 17.743 97.756 28.748 148.948 32.92z m-190.142 156.91l229.9-3.533 83.482 96.193c-83.42-19.646-175.884-39.417-271.844-39.417-18.358 0-36.157 0.702-53.565 2.12l12.027-55.363zM554.52 823.057l0.609-0.514-123.974-142.878-103.244 1.59 75.277-119.232c6.598 0.211 13.15 0.515 19.762 0.515 72.158 0 142.163-13.602 207.331-39.299 66.556 44.908 142.098 76.516 222.335 92.224l12.681 93.409-77.664 7.27-64.435 132.591c-2.714 0.093-5.396 0.187-8.22 0.187-45.142 0-100.827-11.847-160.458-25.863z m405.176-49.04L759.339 930.63l-9.423 1.115c-10.98 1.31-22.725 1.966-34.923 1.966-62.033 0-132.88-16.893-207.877-34.768-85.773-20.443-182.997-43.597-279.611-43.597-39.744 0-76.259 3.736-111.65 11.449L64.302 878.01l117-538.837 13.868-7.385c12.088-6.45 24.581-12.057 37.419-17.01 5.225 9.788 11.293 19.482 18.25 29.278-13.399 4.882-26.641 10.7-39.745 17.665L108.648 833.664c236.39-51.45 471.405 76.726 626.732 65.326 23.257-43.013 74.59-150.889 74.59-150.889l110.59-10.334-50.054-368.387c-115.409 17.758-235.016-13.29-351.098-32.664 6.988-10.42 12.961-20.792 17.938-31.352 18 3.103 35.906 6.404 53.658 9.67 68.428 12.642 139.196 25.722 206.674 25.722 24.115 0 46.265-1.614 67.666-4.906l34.113-5.257 60.239 443.425zM575.624 398.415c53.83 9.936 109.03 20.13 164.857 24.662-36.265 27.187-75.51 49.485-116.986 66.424-39.416-29.066-75.105-63.18-106.145-101.543 19.138 3.267 38.526 6.8 58.274 10.457z m-145.422 42.372c19.856-21.11 37.67-40.07 53.205-57.947a599.931 599.931 0 0 0 113.866 116.496c-55.311 19.208-114.038 29.277-174.325 29.277-65.261 0-128.466-11.73-188.503-34.605l21.106-97.223a263.167 263.167 0 0 1 29.292-10.466c14.85 16.869 31.603 34.744 50.195 54.515l47.605 48.4 47.559-48.447zM382.612 90.29c-76.29 0-138.122 61.815-138.122 138.082 0 71.877 48.183 117.501 133.131 208.298 1.09 1.147 4.992 4.953 4.992 4.953s4.008-3.946 5.022-5.022c84.915-90.782 133.051-136.35 133.051-208.228 0.001-76.268-61.815-138.083-138.073-138.083z m0 302.12c-74.09-78.817-104.195-113.274-104.195-164.039 0-57.44 46.732-104.171 104.196-104.171 57.448 0 104.18 46.731 104.18 104.171 0 50.78-30.12 85.221-104.18 164.04z" fill="#327cff" p-id="8575"></path></svg>