<?xml version="1.0" standalone="no"?><!DOCTYPE svg PUBLIC "-//W3C//DTD SVG 1.1//EN" "http://www.w3.org/Graphics/SVG/1.1/DTD/svg11.dtd"><svg t="1725203360528" class="icon" viewBox="0 0 1024 1024" version="1.1" xmlns="http://www.w3.org/2000/svg" p-id="1796" xmlns:xlink="http://www.w3.org/1999/xlink" width="16" height="16"><path d="M517.632 761.344c-12.8 0-26.112-0.512-39.424-2.048-182.784-17.408-316.416-153.6-342.016-198.144-9.216-16.384-12.288-58.368 1.536-77.312 123.392-163.84 256-242.688 393.728-233.472 184.32 11.776 320 180.224 352.768 238.08 6.656 11.776 15.36 59.392-0.512 77.824-110.592 129.536-233.984 195.072-366.08 195.072zM178.688 537.6c19.968 34.304 139.776 157.696 304.128 173.568 129.536 12.8 250.88-45.568 361.472-173.056 0.512-7.168-1.024-22.016-2.56-26.624-23.552-40.96-146.944-201.728-312.832-212.48-120.32-7.68-238.08 64-350.72 212.992-1.536 5.12-1.024 19.968 0.512 25.6z" fill="#cdcdcd" p-id="1797"></path><path d="M510.464 627.712c-67.584 0-122.368-54.784-122.368-122.368s54.784-122.368 122.368-122.368 122.368 54.784 122.368 122.368-54.784 122.368-122.368 122.368z m0-196.608c-40.96 0-73.728 33.28-73.728 73.728S470.016 578.56 510.464 578.56c40.96 0 73.728-33.28 73.728-73.728s-33.28-73.728-73.728-73.728z" fill="#cdcdcd" p-id="1798"></path></svg>